General
Unique ID                                : 146395281757052404243624370519409502291 (0x6E22B4A7CA8FAF727A9C08861E0D2853)
Complete name                            : Alien.Romulus.2024.UHD.BluRay.2160p.TrueHD.Atmos.7.1.DV.HEVC.REMUX-FraMeSToR.mkv
Format                                   : Matroska
Format version                           : Version 4
File size                                : 50.3 GiB
Duration                                 : 1 h 59 min
Overall bit rate mode                    : Variable
Overall bit rate                         : 60.5 Mb/s
Frame rate                               : 23.976 FPS
Movie name                               : Alien: Romulus (2024) 4K
Encoded date                             : 2024-11-26 09:38:34 UTC
Writing application                      : mkvmerge v88.0 ('All I Know') 64-bit
Writing library                          : libebml v1.4.5 + libmatroska v1.7.1
IMDB                                     : tt18412256
TMDB                                     : movie/945961

Video
ID                                       : 1
ID in the original source medium         : 4113 (0x1011)
Format                                   : HEVC
Format/Info                              : High Efficiency Video Coding
Format profile                           : Main 10@L5.1@High
HDR format                               : Dolby Vision, Version 1.0, Profile 7.6, dvhe.07.06, BL+EL+RPU, no metadata compression, Blu-ray compatible / SMPTE ST 2086, Version HDR10, HDR10 compatible
Codec ID                                 : V_MPEGH/ISO/HEVC
Duration                                 : 1 h 59 min
Bit rate                                 : 54.9 Mb/s
Width                                    : 3 840 pixels
Height                                   : 2 160 pixels
Display aspect ratio                     : 16:9
Frame rate mode                          : Constant
Frame rate                               : 23.976 (24000/1001) FPS
Color space                              : YUV
Chroma subsampling                       : 4:2:0 (Type 2)
Bit depth                                : 10 bits
Bits/(Pixel*Frame)                       : 0.276
Stream size                              : 45.6 GiB (91%)
Default                                  : Yes
Forced                                   : No
Color range                              : Limited
Color primaries                          : BT.2020
Transfer characteristics                 : PQ
Matrix coefficients                      : BT.2020 non-constant
Mastering display color primaries        : BT.2020
Mastering display luminance              : min: 0.0001 cd/m2, max: 1000 cd/m2
Original source medium                   : Blu-ray

Audio #1
ID                                       : 2
Format                                   : MLP FBA 16-ch
Format/Info                              : Meridian Lossless Packing FBA with 16-channel presentation
Commercial name                          : Dolby TrueHD with Dolby Atmos
Codec ID                                 : A_TRUEHD
Duration                                 : 1 h 59 min
Bit rate mode                            : Variable
Bit rate                                 : 4 756 kb/s
Maximum bit rate                         : 7 785 kb/s
Channel(s)                               : 8 channels
Channel layout                           : L R C LFE Ls Rs Lb Rb
Sampling rate                            : 48.0 kHz
Frame rate                               : 1 200.000 FPS (40 SPF)
Compression mode                         : Lossless
Stream size                              : 3.95 GiB (8%)
Title                                    : TrueHD Atmos 7.1
Language                                 : English
Default                                  : Yes
Forced                                   : No
Number of dynamic objects                : 13
Bed channel count                        : 1 channel
Bed channel configuration                : LFE

Audio #2
ID                                       : 3
Format                                   : AC-3
Format/Info                              : Audio Coding 3
Commercial name                          : Dolby Digital
Codec ID                                 : A_AC3
Duration                                 : 1 h 59 min
Bit rate mode                            : Constant
Bit rate                                 : 640 kb/s
Channel(s)                               : 6 channels
Channel layout                           : L R C LFE Ls Rs
Sampling rate                            : 48.0 kHz
Frame rate                               : 31.250 FPS (1536 SPF)
Compression mode                         : Lossy
Stream size                              : 545 MiB (1%)
Title                                    : AC-3 5.1
Language                                 : English
Service kind                             : Complete Main
Default                                  : No
Forced                                   : No
Dialog Normalization                     : -31 dB
compr                                    : -0.28 dB
cmixlev                                  : -3.0 dB
surmixlev                                : -6 dB
dmixmod                                  : Lo/Ro
ltrtcmixlev                              : -3.0 dB
ltrtsurmixlev                            : -4.5 dB
lorocmixlev                              : -3.0 dB
lorosurmixlev                            : -4.5 dB
dialnorm_Average                         : -31 dB
dialnorm_Minimum                         : -31 dB
dialnorm_Maximum                         : -31 dB

Text #1
ID                                       : 4
Format                                   : UTF-8
Codec ID                                 : S_TEXT/UTF8
Codec ID/Info                            : UTF-8 Plain Text
Duration                                 : 1 h 46 min
Bit rate                                 : 41 b/s
Frame rate                               : 0.179 FPS
Count of elements                        : 1143
Stream size                              : 32.7 KiB (0%)
Title                                    : English
Language                                 : English
Default                                  : No
Forced                                   : No

Text #2
ID                                       : 5
Format                                   : PGS
Codec ID                                 : S_HDMV/PGS
Codec ID/Info                            : Picture based subtitle format used on BDs/HD-DVDs
Duration                                 : 1 h 57 min
Bit rate                                 : 33.0 kb/s
Frame rate                               : 0.472 FPS
Count of elements                        : 3324
Stream size                              : 27.7 MiB (0%)
Title                                    : English (SDH)
Language                                 : English
Default                                  : No
Forced                                   : No

Text #3
ID                                       : 6
Format                                   : UTF-8
Codec ID                                 : S_TEXT/UTF8
Codec ID/Info                            : UTF-8 Plain Text
Duration                                 : 1 h 57 min
Bit rate                                 : 56 b/s
Frame rate                               : 0.172 FPS
Count of elements                        : 1211
Stream size                              : 48.2 KiB (0%)
Title                                    : Arabic
Language                                 : Arabic
Default                                  : No
Forced                                   : No

Text #4
ID                                       : 7
Format                                   : UTF-8
Codec ID                                 : S_TEXT/UTF8
Codec ID/Info                            : UTF-8 Plain Text
Duration                                 : 1 h 57 min
Bit rate                                 : 52 b/s
Frame rate                               : 0.166 FPS
Count of elements                        : 1169
Stream size                              : 44.9 KiB (0%)
Title                                    : Bulgarian
Language                                 : Bulgarian
Default                                  : No
Forced                                   : No

Text #5
ID                                       : 8
Format                                   : UTF-8
Codec ID                                 : S_TEXT/UTF8
Codec ID/Info                            : UTF-8 Plain Text
Duration                                 : 1 h 57 min
Bit rate                                 : 31 b/s
Frame rate                               : 0.172 FPS
Count of elements                        : 1212
Stream size                              : 26.9 KiB (0%)
Title                                    : Chinese (Cantonese)
Language                                 : Cantonese
Default                                  : No
Forced                                   : No

Text #6
ID                                       : 9
Format                                   : UTF-8
Codec ID                                 : S_TEXT/UTF8
Codec ID/Info                            : UTF-8 Plain Text
Duration                                 : 1 h 57 min
Bit rate                                 : 28 b/s
Frame rate                               : 0.173 FPS
Count of elements                        : 1220
Stream size                              : 24.7 KiB (0%)
Title                                    : Chinese (Traditional)
Language                                 : Chinese (Traditional)
Default                                  : No
Forced                                   : No

Text #7
ID                                       : 10
Format                                   : UTF-8
Codec ID                                 : S_TEXT/UTF8
Codec ID/Info                            : UTF-8 Plain Text
Duration                                 : 1 h 57 min
Bit rate                                 : 35 b/s
Frame rate                               : 0.165 FPS
Count of elements                        : 1162
Stream size                              : 30.7 KiB (0%)
Title                                    : Croatian
Language                                 : Croatian
Default                                  : No
Forced                                   : No

Text #8
ID                                       : 11
Format                                   : UTF-8
Codec ID                                 : S_TEXT/UTF8
Codec ID/Info                            : UTF-8 Plain Text
Duration                                 : 1 h 57 min
Bit rate                                 : 33 b/s
Frame rate                               : 0.169 FPS
Count of elements                        : 1188
Stream size                              : 29.1 KiB (0%)
Title                                    : Czech
Language                                 : Czech
Default                                  : No
Forced                                   : No

Text #9
ID                                       : 12
Format                                   : UTF-8
Codec ID                                 : S_TEXT/UTF8
Codec ID/Info                            : UTF-8 Plain Text
Duration                                 : 1 h 57 min
Bit rate                                 : 30 b/s
Frame rate                               : 0.103 FPS
Count of elements                        : 726
Stream size                              : 26.3 KiB (0%)
Title                                    : Danish
Language                                 : Danish
Default                                  : No
Forced                                   : No

Text #10
ID                                       : 13
Format                                   : UTF-8
Codec ID                                 : S_TEXT/UTF8
Codec ID/Info                            : UTF-8 Plain Text
Duration                                 : 1 h 57 min
Bit rate                                 : 34 b/s
Frame rate                               : 0.148 FPS
Count of elements                        : 1045
Stream size                              : 29.5 KiB (0%)
Title                                    : Dutch
Language                                 : Dutch
Default                                  : No
Forced                                   : No

Text #11
ID                                       : 14
Format                                   : UTF-8
Codec ID                                 : S_TEXT/UTF8
Codec ID/Info                            : UTF-8 Plain Text
Duration                                 : 1 h 57 min
Bit rate                                 : 38 b/s
Frame rate                               : 0.172 FPS
Count of elements                        : 1210
Stream size                              : 33.2 KiB (0%)
Title                                    : Estonian
Language                                 : Estonian
Default                                  : No
Forced                                   : No

Text #12
ID                                       : 15
Format                                   : UTF-8
Codec ID                                 : S_TEXT/UTF8
Codec ID/Info                            : UTF-8 Plain Text
Duration                                 : 1 h 57 min
Bit rate                                 : 38 b/s
Frame rate                               : 0.170 FPS
Count of elements                        : 1200
Stream size                              : 32.9 KiB (0%)
Title                                    : Finnish
Language                                 : Finnish
Default                                  : No
Forced                                   : No

Text #13
ID                                       : 16
Format                                   : PGS
Codec ID                                 : S_HDMV/PGS
Codec ID/Info                            : Picture based subtitle format used on BDs/HD-DVDs
Duration                                 : 1 h 58 min
Bit rate                                 : 24.6 kb/s
Frame rate                               : 0.344 FPS
Count of elements                        : 2440
Stream size                              : 20.8 MiB (0%)
Title                                    : French (Canadian)
Language                                 : French (CA)
Default                                  : No
Forced                                   : No

Text #14
ID                                       : 17
Format                                   : UTF-8
Codec ID                                 : S_TEXT/UTF8
Codec ID/Info                            : UTF-8 Plain Text
Duration                                 : 1 h 57 min
Bit rate                                 : 30 b/s
Frame rate                               : 0.141 FPS
Count of elements                        : 995
Stream size                              : 26.1 KiB (0%)
Title                                    : French (Parisian)
Language                                 : French (FR)
Default                                  : No
Forced                                   : No

Text #15
ID                                       : 18
Format                                   : UTF-8
Codec ID                                 : S_TEXT/UTF8
Codec ID/Info                            : UTF-8 Plain Text
Duration                                 : 1 h 53 min
Bit rate                                 : 35 b/s
Frame rate                               : 0.151 FPS
Count of elements                        : 1029
Stream size                              : 29.9 KiB (0%)
Title                                    : German
Language                                 : German
Default                                  : No
Forced                                   : No

Text #16
ID                                       : 19
Format                                   : UTF-8
Codec ID                                 : S_TEXT/UTF8
Codec ID/Info                            : UTF-8 Plain Text
Duration                                 : 1 h 57 min
Bit rate                                 : 61 b/s
Frame rate                               : 0.171 FPS
Count of elements                        : 1201
Stream size                              : 53.2 KiB (0%)
Title                                    : Greek
Language                                 : Greek
Default                                  : No
Forced                                   : No

Text #17
ID                                       : 20
Format                                   : UTF-8
Codec ID                                 : S_TEXT/UTF8
Codec ID/Info                            : UTF-8 Plain Text
Duration                                 : 1 h 57 min
Bit rate                                 : 47 b/s
Frame rate                               : 0.172 FPS
Count of elements                        : 1210
Stream size                              : 41.0 KiB (0%)
Title                                    : Hebrew
Language                                 : Hebrew
Default                                  : No
Forced                                   : No

Text #18
ID                                       : 21
Format                                   : UTF-8
Codec ID                                 : S_TEXT/UTF8
Codec ID/Info                            : UTF-8 Plain Text
Duration                                 : 1 h 57 min
Bit rate                                 : 31 b/s
Frame rate                               : 0.167 FPS
Count of elements                        : 1176
Stream size                              : 27.1 KiB (0%)
Title                                    : Hungarian
Language                                 : Hungarian
Default                                  : No
Forced                                   : No

Text #19
ID                                       : 22
Format                                   : UTF-8
Codec ID                                 : S_TEXT/UTF8
Codec ID/Info                            : UTF-8 Plain Text
Duration                                 : 1 h 57 min
Bit rate                                 : 35 b/s
Frame rate                               : 0.170 FPS
Count of elements                        : 1197
Stream size                              : 30.5 KiB (0%)
Title                                    : Icelandic
Language                                 : Icelandic
Default                                  : No
Forced                                   : No

Text #20
ID                                       : 23
Format                                   : UTF-8
Codec ID                                 : S_TEXT/UTF8
Codec ID/Info                            : UTF-8 Plain Text
Duration                                 : 1 h 53 min
Bit rate                                 : 37 b/s
Frame rate                               : 0.168 FPS
Count of elements                        : 1145
Stream size                              : 31.0 KiB (0%)
Title                                    : Italian
Language                                 : Italian
Default                                  : No
Forced                                   : No

Text #21
ID                                       : 24
Format                                   : PGS
Codec ID                                 : S_HDMV/PGS
Codec ID/Info                            : Picture based subtitle format used on BDs/HD-DVDs
Duration                                 : 1 h 57 min
Bit rate                                 : 15.9 kb/s
Frame rate                               : 0.277 FPS
Count of elements                        : 1953
Stream size                              : 13.4 MiB (0%)
Title                                    : Japanese
Language                                 : Japanese
Default                                  : No
Forced                                   : No

Text #22
ID                                       : 25
Format                                   : UTF-8
Codec ID                                 : S_TEXT/UTF8
Codec ID/Info                            : UTF-8 Plain Text
Duration                                 : 1 h 50 min
Bit rate                                 : 37 b/s
Frame rate                               : 0.181 FPS
Count of elements                        : 1198
Stream size                              : 30.6 KiB (0%)
Title                                    : Korean
Language                                 : Korean
Default                                  : No
Forced                                   : No

Text #23
ID                                       : 26
Format                                   : UTF-8
Codec ID                                 : S_TEXT/UTF8
Codec ID/Info                            : UTF-8 Plain Text
Duration                                 : 1 h 57 min
Bit rate                                 : 34 b/s
Frame rate                               : 0.169 FPS
Count of elements                        : 1193
Stream size                              : 29.5 KiB (0%)
Title                                    : Lithuanian
Language                                 : Lithuanian
Default                                  : No
Forced                                   : No

Text #24
ID                                       : 27
Format                                   : UTF-8
Codec ID                                 : S_TEXT/UTF8
Codec ID/Info                            : UTF-8 Plain Text
Duration                                 : 1 h 57 min
Bit rate                                 : 35 b/s
Frame rate                               : 0.171 FPS
Count of elements                        : 1205
Stream size                              : 30.6 KiB (0%)
Title                                    : Norwegian
Language                                 : Norwegian
Default                                  : No
Forced                                   : No

Text #25
ID                                       : 28
Format                                   : UTF-8
Codec ID                                 : S_TEXT/UTF8
Codec ID/Info                            : UTF-8 Plain Text
Duration                                 : 1 h 57 min
Bit rate                                 : 29 b/s
Frame rate                               : 0.167 FPS
Count of elements                        : 1179
Stream size                              : 25.5 KiB (0%)
Title                                    : Polish
Language                                 : Polish
Default                                  : No
Forced                                   : No

Text #26
ID                                       : 29
Format                                   : UTF-8
Codec ID                                 : S_TEXT/UTF8
Codec ID/Info                            : UTF-8 Plain Text
Duration                                 : 1 h 57 min
Bit rate                                 : 36 b/s
Frame rate                               : 0.169 FPS
Count of elements                        : 1191
Stream size                              : 31.6 KiB (0%)
Title                                    : Portuguese (Iberian)
Language                                 : Portuguese (PT)
Default                                  : No
Forced                                   : No

Text #27
ID                                       : 30
Format                                   : UTF-8
Codec ID                                 : S_TEXT/UTF8
Codec ID/Info                            : UTF-8 Plain Text
Duration                                 : 1 h 57 min
Bit rate                                 : 33 b/s
Frame rate                               : 0.169 FPS
Count of elements                        : 1191
Stream size                              : 28.9 KiB (0%)
Title                                    : Slovak
Language                                 : Slovak
Default                                  : No
Forced                                   : No

Text #28
ID                                       : 31
Format                                   : UTF-8
Codec ID                                 : S_TEXT/UTF8
Codec ID/Info                            : UTF-8 Plain Text
Duration                                 : 1 h 57 min
Bit rate                                 : 31 b/s
Frame rate                               : 0.138 FPS
Count of elements                        : 975
Stream size                              : 27.3 KiB (0%)
Title                                    : Slovenian
Language                                 : Slovenian
Default                                  : No
Forced                                   : No

Text #29
ID                                       : 32
Format                                   : UTF-8
Codec ID                                 : S_TEXT/UTF8
Codec ID/Info                            : UTF-8 Plain Text
Duration                                 : 1 h 57 min
Bit rate                                 : 34 b/s
Frame rate                               : 0.168 FPS
Count of elements                        : 1183
Stream size                              : 30.0 KiB (0%)
Title                                    : Spanish (Castilian)
Language                                 : Spanish (ES)
Default                                  : No
Forced                                   : No

Text #30
ID                                       : 33
Format                                   : PGS
Codec ID                                 : S_HDMV/PGS
Codec ID/Info                            : Picture based subtitle format used on BDs/HD-DVDs
Duration                                 : 1 h 50 min
Bit rate                                 : 25.5 kb/s
Frame rate                               : 0.365 FPS
Count of elements                        : 2414
Stream size                              : 20.1 MiB (0%)
Title                                    : Spanish (Latin American)
Language                                 : Spanish (Latin America)
Default                                  : No
Forced                                   : No

Text #31
ID                                       : 34
Format                                   : UTF-8
Codec ID                                 : S_TEXT/UTF8
Codec ID/Info                            : UTF-8 Plain Text
Duration                                 : 1 h 57 min
Bit rate                                 : 30 b/s
Frame rate                               : 0.113 FPS
Count of elements                        : 796
Stream size                              : 26.2 KiB (0%)
Title                                    : Swedish
Language                                 : Swedish
Default                                  : No
Forced                                   : No

Text #32
ID                                       : 35
Format                                   : UTF-8
Codec ID                                 : S_TEXT/UTF8
Codec ID/Info                            : UTF-8 Plain Text
Duration                                 : 1 h 57 min
Bit rate                                 : 37 b/s
Frame rate                               : 0.168 FPS
Count of elements                        : 1182
Stream size                              : 32.4 KiB (0%)
Title                                    : Turkish
Language                                 : Turkish
Default                                  : No
Forced                                   : No

Text #33
ID                                       : 36
Format                                   : UTF-8
Codec ID                                 : S_TEXT/UTF8
Codec ID/Info                            : UTF-8 Plain Text
Duration                                 : 1 h 57 min
Bit rate                                 : 58 b/s
Frame rate                               : 0.172 FPS
Count of elements                        : 1213
Stream size                              : 49.9 KiB (0%)
Title                                    : Ukrainian
Language                                 : Ukrainian
Default                                  : No
Forced                                   : No

Menu
00:00:00.000                             : en:Chapter 1
00:04:48.288                             : en:Chapter 2
00:09:50.715                             : en:Chapter 3
00:13:52.540                             : en:Chapter 4
00:19:19.867                             : en:Chapter 5
00:26:03.687                             : en:Chapter 6
00:29:14.670                             : en:Chapter 7
00:33:34.804                             : en:Chapter 8
00:35:33.840                             : en:Chapter 9
00:38:04.199                             : en:Chapter 10
00:45:58.547                             : en:Chapter 11
00:53:04.848                             : en:Chapter 12
00:56:36.602                             : en:Chapter 13
01:04:34.579                             : en:Chapter 14
01:09:31.876                             : en:Chapter 15
01:15:26.480                             : en:Chapter 16
01:22:51.925                             : en:Chapter 17
01:31:11.758                             : en:Chapter 18
01:38:28.820                             : en:Chapter 19
01:50:32.334                             : en:Chapter 20
01:51:51.830                             : en:Chapter 21
